<svg xmlns="http://www.w3.org/2000/svg" width="48" height="48" viewBox="0 0 48 48"><defs><linearGradient id="a" x1="24.05" y1="560.57" x2="24.05" y2="587.13" gradientTransform="translate(0 -550)" gradientUnits="userSpaceOnUse"><stop offset="0" stop-color="#424e54"/><stop offset="1" stop-color="#1d2529"/></linearGradient><linearGradient id="b" x1="-1511.87" y1="-532.86" x2="-1511.87" y2="-528.44" gradientTransform="rotate(-180 -742.685 -247.835)" gradientUnits="userSpaceOnUse"><stop offset="0" stop-color="#0284c1"/><stop offset="1" stop-color="#036baf"/></linearGradient><linearGradient id="c" x1="23.8" y1="560.63" x2="23.8" y2="566.42" gradientTransform="translate(0 -550)" gradientUnits="userSpaceOnUse"><stop offset="0" stop-color="#0284c1"/><stop offset="1" stop-color="#036baf"/></linearGradient><linearGradient id="d" x1="15.64" y1="577.55" x2="15.64" y2="580.21" gradientTransform="translate(0 -550)" gradientUnits="userSpaceOnUse"><stop offset="0" stop-color="#0284c1"/><stop offset="1" stop-color="#036baf"/></linearGradient><linearGradient id="e" x1="19.64" y1="577.55" x2="19.64" y2="580.21" gradientTransform="translate(0 -550)" gradientUnits="userSpaceOnUse"><stop offset="0" stop-color="#0284c1"/><stop offset="1" stop-color="#036baf"/></linearGradient><linearGradient id="f" x1="23.64" y1="577.55" x2="23.64" y2="580.21" gradientTransform="translate(0 -550)" gradientUnits="userSpaceOnUse"><stop offset="0" stop-color="#0284c1"/><stop offset="1" stop-color="#036baf"/></linearGradient><linearGradient id="g" x1="28.95" y1="577.55" x2="28.95" y2="580.21" gradientTransform="translate(0 -550)" gradientUnits="userSpaceOnUse"><stop offset="0" stop-color="#0284c1"/><stop offset="1" stop-color="#036baf"/></linearGradient><linearGradient id="h" x1="32.95" y1="577.55" x2="32.95" y2="580.21" gradientTransform="translate(0 -550)" gradientUnits="userSpaceOnUse"><stop offset="0" stop-color="#0284c1"/><stop offset="1" stop-color="#036baf"/></linearGradient></defs><path fill="rgba(255,255,255,0)" d="M0 0h48v48H0z"/><path d="M33.3 9.12h-17c-3 0-5 2-5 4.51v20.44c0 2.51 2 4.51 4.5 4.51h17c2.5 0 4-2 4-4.51V13.63c0-2.51-1.5-4.51-4-4.51h.5z" fill="#2d2d2d"/><path d="M33.3 9.12h-.5.5m-.5 0c2.5 0 4 2 4 4.51v20.44c0 2.51-1.5 4.51-4 4.51h-17c-2.5 0-4.5-2-4.5-4.51V13.63c0-2.51 2-4.51 5-4.51h16.5m.5-1h-17c-3.4 0-6 2.41-6 5.51v20.44c0 3.01 2.5 5.51 5.5 5.51h17c2.9 0 5-2.3 5-5.51V13.63c0-3.01-1.8-5.31-4.5-5.51q0-.1 0 0z" fill="#fff" opacity=".65"/><path d="M32.8 37.08h-17c-1.6 0-3-1.3-3-3.01V13.63c0-1.6 1.4-3.01 3-3.01h17c1.7 0 2.5 1.4 2.5 3.01v20.44c0 1.7-.8 3.01-2.5 3.01z" fill="url(#a)"/><path d="M25.6 35.27l9.5-2.51v1.4c0 1.7-.7 3.01-3 3.01H17.9" fill="url(#b)"/><path d="M23.6 12.03c-8.9 0-10.9 4.41-10.9 4.41v-2.81c0-1.6 1.4-3.01 3-3.01h15.6c1.8 0 3.1.1 3.6 1.4" fill="url(#c)"/><path d="M29.9 20.24v2H18.4v-2" fill="#d0d96c"/><path d="M14.8 27.56h1.7c.3 0 .5.2.5.5v1.7c0 .3-.2.5-.5.5h-1.7c-.3 0-.5-.2-.5-.5v-1.7c-.1-.3.2-.5.5-.5z" fill="url(#d)"/><path d="M18.8 27.56h1.7c.3 0 .5.2.5.5v1.7c0 .3-.2.5-.5.5h-1.7c-.3 0-.5-.2-.5-.5v-1.7c-.1-.3.2-.5.5-.5z" fill="url(#e)"/><path d="M22.8 27.56h1.7c.3 0 .5.2.5.5v1.7c0 .3-.2.5-.5.5h-1.7c-.3 0-.5-.2-.5-.5v-1.7c-.1-.3.2-.5.5-.5z" fill="url(#f)"/><path d="M28.1 27.56h1.7c.3 0 .5.2.5.5v1.7c0 .3-.2.5-.5.5h-1.7c-.3 0-.5-.2-.5-.5v-1.7c0-.3.2-.5.5-.5z" fill="url(#g)"/><path d="M32.1 27.56h1.7c.3 0 .5.2.5.5v1.7c0 .3-.2.5-.5.5h-1.7c-.3 0-.5-.2-.5-.5v-1.7c0-.3.2-.5.5-.5z" fill="url(#h)"/></svg>