<svg xmlns="http://www.w3.org/2000/svg" width="48" height="48" viewBox="0 0 48 48"><defs><linearGradient id="a" x1="1919.46" y1="2338.96" x2="1932.36" y2="2338.96" gradientTransform="matrix(.48 0 0 .48 -902.72 -1100)" gradientUnits="userSpaceOnUse"><stop offset="0" stop-color="#666"/><stop offset="1" stop-color="#4d4d4d"/></linearGradient></defs><path fill="rgba(255,255,255,0)" d="M0 0h48v48H0z"/><path d="M21.7 29.9c-1.7 0-3.1-1.4-3.1-3.1 0-1.4 1-2.6 2.3-3v-8.3h1.8v8.3c1.2.4 2.1 1.5 2.1 2.9 0 1.8-1.4 3.2-3.1 3.2z"/><path d="M23.2 13.5c.5 0 .9.4.9.9v8.1c1.5.8 2.5 2.4 2.5 4.3 0 2.7-2.2 4.9-4.9 4.9s-4.9-2.2-4.9-4.9c0-1.9 1.1-3.5 2.5-4.3v-8.1c0-.5.2-.9.7-.9h3.2m0-2h-3.1c-1.6 0-2.8 1.2-2.8 2.9v7c-1.6 1.3-2.5 3.3-2.5 5.4 0 3.8 3.1 6.9 6.9 6.9s6.9-3.1 6.9-6.9c0-2.1-1-4.1-2.5-5.4v-7c0-1.6-1.3-2.9-2.9-2.9z" fill="#fff" opacity=".65"/><path d="M23.2 13.5h-3.1c-.5 0-.7.4-.7.9v8.1c-1.5.8-2.5 2.4-2.5 4.3 0 2.7 2.2 4.9 4.9 4.9s4.9-2.2 4.9-4.9c0-1.9-1.1-3.5-2.5-4.3v-8.1c-.1-.4-.5-.9-1-.9zm1.6 13.3c0 1.7-1.4 3.1-3.1 3.1s-3.1-1.4-3.1-3.1c0-1.4 1-2.6 2.3-3v-8.3h1.8v8.3c1.2.5 2.1 1.6 2.1 3z" fill="#282828"/><path d="M21.7 29.9c-1.7 0-3.1-1.4-3.1-3.1 0-1.4 1-2.6 2.3-3v-8.3h1.8v8.3c1.2.4 2.1 1.5 2.1 2.9 0 1.8-1.4 3.2-3.1 3.2z" fill="url(#a)"/><path d="M34.6 15.3c.4 0 .8.1 1.2.3l-.3.7c-.2-.1-.3-.1-.5-.2s-.2-.1-.4-.1c-.3 0-.6.1-.8.4s-.3.6-.3 1.1c0 1 .4 1.4 1.1 1.4.3 0 .7-.1 1.1-.2v.8c-.3.1-.7.2-1.2.2-.6 0-1.1-.2-1.4-.6s-.5-.9-.5-1.6c0-.5.1-.8.2-1.2s.4-.6.7-.8c.3-.1.7-.2 1.1-.2m0-.5c-.5 0-.9.1-1.3.3-.4.2-.7.6-.9 1s-.3.9-.3 1.4c0 .8.2 1.5.6 2 .4.5 1 .7 1.8.7.5 0 1-.1 1.4-.3l.3-.1V18l-.7.2c-.4.1-.7.2-.9.2s-.6 0-.6-.9c0-.4.1-.6.2-.8.1-.1.2-.2.4-.2.1 0 .2 0 .3.1.2 0 .3.1.4.2l.5.2.2-.5.3-.7.2-.4-.4-.2c-.5-.3-1-.4-1.5-.4z" fill="#fff" opacity=".65"/><path d="M34.6 16c-.3 0-.6.1-.8.4s-.3.6-.3 1.1c0 1 .4 1.4 1.1 1.4.3 0 .7-.1 1.1-.2v.8c-.3.1-.7.2-1.2.2-.6 0-1.1-.2-1.4-.6s-.5-.9-.5-1.6c0-.5.1-.8.2-1.2s.4-.6.7-.8.7-.3 1.1-.3.8.1 1.2.3l-.3.7c-.2-.1-.3-.1-.5-.2s-.2 0-.4 0z"/><path d="M31.7 15.4v.8h-1.2v3.5h-.9v-3.5h-1.2v-.8h3.3m.5-.5H28v1.8h1.2v3.5H31v-3.5h1.2v-1.8z" fill="#fff" opacity=".65"/><path d="M30.5 19.6h-.9v-3.5h-1.2v-.8h3.2v.8h-1.2v3.5h.1z"/><path d="M22.7 24.7c1.1.3 2 1.3 2.1 2.5v-.3c0-1.4-.9-2.5-2.1-2.9v.7zm-1.8-.1v-.8c-1.3.4-2.3 1.5-2.3 3v.4c.3-1.2 1.1-2.3 2.3-2.6z" fill="#fff" opacity=".4"/></svg>